HIERARCHY
ROOT root
{
  OFFSET 0 98.6856 0
  CHANNELS 6 Xposition Yposition Zposition Zrotation Xrotation Yrotation
  JOINT torso_1
  {
    OFFSET 0 5.37224 -1.21793
    CHANNELS 6 Xposition Yposition Zposition Zrotation Xrotation Yrotation
    JOINT torso_2
    {
      OFFSET 0 5.94127 1.13336
      CHANNELS 6 Xposition Yposition Zposition Zrotation Xrotation Yrotation
      JOINT torso_3
      {
        OFFSET -1.08535e-17 6.33601 0.121658
        CHANNELS 6 Xposition Yposition Zposition Zrotation Xrotation Yrotation
        JOINT torso_4
        {
          OFFSET -1.16841e-17 6.88189 -0.46916
          CHANNELS 6 Xposition Yposition Zposition Zrotation Xrotation Yrotation
          JOINT torso_5
          {
            OFFSET -2.08699e-17 8.0451 -1.59297
            CHANNELS 6 Xposition Yposition Zposition Zrotation Xrotation Yrotation
            JOINT torso_6
            {
              OFFSET -2.67949e-17 10.0463 -0.967353
              CHANNELS 6 Xposition Yposition Zposition Zrotation Xrotation Yrotation
              JOINT torso_7
              {
                OFFSET -3.07187e-17 11.1612 1.66806
                CHANNELS 6 Xposition Yposition Zposition Zrotation Xrotation Yrotation
                JOINT neck_1
                {
                  OFFSET -1.36661e-17 5.06312 0.756688
                  CHANNELS 6 Xposition Yposition Zposition Zrotation Xrotation Yrotation
                  JOINT neck_2
                  {
                    OFFSET -1.91632e-17 5.09976 0.446172
                    CHANNELS 6 Xposition Yposition Zposition Zrotation Xrotation Yrotation
                    JOINT head
                    {
                      OFFSET -2.12574e-17 5.10962 0.809285
                      CHANNELS 6 Xposition Yposition Zposition Zrotation Xrotation Yrotation
                      End Site
                      {
                        OFFSET 0 0.1 0
                      }
                    }
                  }
                }
                JOINT l_shoulder
                {
                  OFFSET 1.30426 -8.04703 7.96922
                  CHANNELS 6 Xposition Yposition Zposition Zrotation Xrotation Yrotation
                  JOINT l_up_arm
                  {
                    OFFSET 13.7035 3.43734 -3.45766
                    CHANNELS 6 Xposition Yposition Zposition Zrotation Xrotation Yrotation
                    JOINT l_low_arm
                    {
                      OFFSET 30.8964 0.0632652 0.14496
                      CHANNELS 6 Xposition Yposition Zposition Zrotation Xrotation Yrotation
                      JOINT l_hand
                      {
                        OFFSET 25.6348 0.0524902 0.120274
                        CHANNELS 6 Xposition Yposition Zposition Zrotation Xrotation Yrotation
                        End Site
                        {
                          OFFSET 0.1 0 0
                        }
                      }
                    }
                  }
                }
                JOINT r_shoulder
                {
                  OFFSET -1.30426 -8.04702 7.96912
                  CHANNELS 6 Xposition Yposition Zposition Zrotation Xrotation Yrotation
                  JOINT r_up_arm
                  {
                    OFFSET -13.7035 3.43734 -3.45766
                    CHANNELS 6 Xposition Yposition Zposition Zrotation Xrotation Yrotation
                    JOINT r_low_arm
                    {
                      OFFSET -30.8964 0.0632652 0.14496
                      CHANNELS 6 Xposition Yposition Zposition Zrotation Xrotation Yrotation
                      JOINT r_hand
                      {
                        OFFSET -25.6348 0.0524901 0.120274
                        CHANNELS 6 Xposition Yposition Zposition Zrotation Xrotation Yrotation
                        End Site
                        {
                          OFFSET -0.1 0 0
                        }
                      }
                    }
                  }
                }
              }
            }
          }
        }
      }
    }
  }
  JOINT l_up_leg
  {
    OFFSET 9.77065 -4.44866 2.1502
    CHANNELS 6 Xposition Yposition Zposition Zrotation Xrotation Yrotation
    JOINT l_low_leg
    {
      OFFSET -0.901622 -41.0132 -0.693059
      CHANNELS 6 Xposition Yposition Zposition Zrotation Xrotation Yrotation
      JOINT l_foot
      {
        OFFSET -2.46068 -42.7371 -6.39839
        CHANNELS 6 Xposition Yposition Zposition Zrotation Xrotation Yrotation
        JOINT l_toes
        {
          OFFSET 0.82413 -10.4558 13.2182
          CHANNELS 6 Xposition Yposition Zposition Zrotation Xrotation Yrotation
          End Site
          {
            OFFSET 0 0 0.1
          }
        }
      }
    }
  }
  JOINT r_up_leg
  {
    OFFSET -9.77065 -4.44866 2.1502
    CHANNELS 6 Xposition Yposition Zposition Zrotation Xrotation Yrotation
    JOINT r_low_leg
    {
      OFFSET 0.901622 -41.0132 -0.693059
      CHANNELS 6 Xposition Yposition Zposition Zrotation Xrotation Yrotation
      JOINT r_foot
      {
        OFFSET 2.46068 -42.7371 -6.39839
        CHANNELS 6 Xposition Yposition Zposition Zrotation Xrotation Yrotation
        JOINT r_toes
        {
          OFFSET -0.82413 -10.4558 13.2182
          CHANNELS 6 Xposition Yposition Zposition Zrotation Xrotation Yrotation
          End Site
          {
            OFFSET 0 0 0.1
          }
        }
      }
    }
  }
}
MOTION
Frames: 5
Frame Time: 0.02
0 98.6856 0 -0 0 -0 0 5.37224 -1.21793 -0 0 -0 0 5.94127 1.13336 -0 0 -0 -1.08535e-17 6.33601 0.121658 -0 0 -0 -1.16841e-17 6.88189 -0.46916 -0 0 -0 -2.08699e-17 8.0451 -1.59297 -0 0 -0 -2.67949e-17 10.0463 -0.967353 -0 0 -0 -3.07187e-17 11.1612 1.66806 -0 0 -0 -1.36661e-17 5.06312 0.756688 -0 0 -0 -1.91632e-17 5.09976 0.446172 -0 0 -0 -2.12574e-17 5.10962 0.809285 -0 0 -0 1.30426 -8.04703 7.96922 -0 0 -0 13.7035 3.43734 -3.45766 -0 0 -0 30.8964 0.0632652 0.14496 -0 0 -0 25.6348 0.0524902 0.120274 -0 0 -0 -1.30426 -8.04702 7.96912 -0 0 -0 -13.7035 3.43734 -3.45766 -0 0 -0 -30.8964 0.0632652 0.14496 -0 0 -0 -25.6348 0.0524901 0.120274 -0 0 -0 9.77065 -4.44866 2.1502 -0 0 -0 -0.901622 -41.0132 -0.693059 -0 0 -0 -2.46068 -42.7371 -6.39839 -0 0 -0 0.82413 -10.4558 13.2182 -0 0 -0 -9.77065 -4.44866 2.1502 -0 0 -0 0.901622 -41.0132 -0.693059 -0 0 -0 2.46068 -42.7371 -6.39839 -0 0 -0 -0.82413 -10.4558 13.2182 -0 0 -0 
-5.57728 95.7656 52.4435 4.85772 11.2073 -0.178673 0 5.37224 -1.21793 -2.48072 -0.222469 3.18754 0 5.94127 1.13336 -2.81685 -0.048885 2.82928 -1.08535e-17 6.33601 0.121658 -2.36726 0.318254 2.78259 -1.16841e-17 6.88189 -0.46916 -2.02855 0.989926 2.80583 -2.08699e-17 8.0451 -1.59297 -0.916377 0.890229 2.92233 -2.67949e-17 10.0463 -0.967353 0.449269 1.29526 2.68031 -3.07187e-17 11.1612 1.66806 -0.0148131 0.121509 -0.0119448 -1.36661e-17 5.06312 0.756688 0.0535869 9.99441 -11.3096 -1.91632e-17 5.09976 0.446172 2.70915 -2.7111 -5.21932 -2.12574e-17 5.10962 0.809285 2.54412 -4.15157 -1.72183 1.30426 -8.04703 7.96922 10.7979 0.520113 3.36739 13.7035 3.43734 -3.45766 -93.6844 3.535 5.07927 30.8964 0.0632652 0.14496 4.29373 -0.778442 -21.137 25.6348 0.0524902 0.120274 -0.25771 3.102 -1.27509 -1.30426 -8.04702 7.96912 -17.7096 0.547756 -7.93589 -13.7035 3.43734 -3.45766 79.0171 50.2339 24.3829 -30.8964 0.0632652 0.14496 -10.2077 -5.64894 58.4239 -25.6348 0.0524901 0.120274 8.33606 -49.9552 5.76759 9.77065 -4.44866 2.1502 -4.56033 -33.2408 -17.2064 -0.901622 -41.0132 -0.693059 -11.5412 37.4068 3.23677 -2.46068 -42.7371 -6.39839 3.95748 -10.933 15.7587 0.82413 -10.4558 13.2182 4.96962e-17 -7.95139e-16 1.2424e-17 -9.77065 -4.44866 2.1502 -2.06381 9.4155 24.3817 0.901622 -41.0132 -0.693059 1.98493 7.39744 0.000974735 2.46068 -42.7371 -6.39839 12.7198 22.6795 -18.6435 -0.82413 -10.4558 13.2182 -1.39149e-15 -5.34234e-16 -1.27098e-14 
-5.27624 95.1615 55.9551 5.61639 11.9402 -0.273756 0 5.37224 -1.21793 -3.11867 0.0970772 3.05082 0 5.94127 1.13336 -3.33527 0.164683 2.63752 -1.08535e-17 6.33601 0.121658 -2.73492 0.32542 2.60086 -1.16841e-17 6.88189 -0.46916 -2.2295 0.675203 2.62676 -2.08699e-17 8.0451 -1.59297 -0.975494 0.388361 2.77974 -2.67949e-17 10.0463 -0.967353 0.511856 0.577849 2.53886 -3.07187e-17 11.1612 1.66806 -0.0113059 0.126351 -0.00919606 -1.36661e-17 5.06312 0.756688 0.144769 9.91885 -11.0016 -1.91632e-17 5.09976 0.446172 2.98578 -2.27694 -5.01123 -2.12574e-17 5.10962 0.809285 2.19386 -3.72794 -2.01662 1.30426 -8.04703 7.96922 9.96488 1.13546 2.78405 13.7035 3.43734 -3.45766 -93.2327 6.58402 3.89897 30.8964 0.0632652 0.14496 4.58086 -0.89201 -22.6212 25.6348 0.0524902 0.120274 -1.10318 0.353741 -2.45496 -1.30426 -8.04702 7.96912 -17.4194 1.15727 -7.75907 -13.7035 3.43734 -3.45766 80.9921 51.6313 22.6516 -30.8964 0.0632652 0.14496 -9.85503 -5.1163 55.3811 -25.6348 0.0524901 0.120274 8.98839 -48.7775 6.7513 9.77065 -4.44866 2.1502 -5.76173 -31.8445 -17.9521 -0.901622 -41.0132 -0.693059 -11.2667 36.7393 3.08317 -2.46068 -42.7371 -6.39839 4.75946 -12.2876 15.8949 0.82413 -10.4558 13.2182 -7.45443e-16 -8.32411e-16 4.96962e-17 -9.77065 -4.44866 2.1502 -2.91035 9.50562 23.4132 0.901622 -41.0132 -0.693059 2.6105 9.70189 -0.0518119 2.46068 -42.7371 -6.39839 13.4945 23.3094 -18.8075 -0.82413 -10.4558 13.2182 4.57205e-15 -7.82715e-16 -1.29707e-14 
-4.93859 94.2644 59.5268 5.98383 13.7824 -0.196653 0 5.37224 -1.21793 -3.72435 0.336934 2.82468 0 5.94127 1.13336 -3.80391 0.287648 2.36268 -1.08535e-17 6.33601 0.121658 -3.05005 0.251722 2.33748 -1.16841e-17 6.88189 -0.46916 -2.37796 0.255046 2.36427 -2.08699e-17 8.0451 -1.59297 -0.999193 -0.170894 2.54618 -2.67949e-17 10.0463 -0.967353 0.566959 -0.187219 2.30722 -3.07187e-17 11.1612 1.66806 -0.00793468 0.132532 -0.00525276 -1.36661e-17 5.06312 0.756688 0.153635 9.27716 -10.5579 -1.91632e-17 5.09976 0.446172 3.27427 -1.81477 -4.75305 -2.12574e-17 5.10962 0.809285 1.95337 -3.09056 -2.45934 1.30426 -8.04703 7.96922 9.01366 1.86306 2.16915 13.7035 3.43734 -3.45766 -92.4657 10.5069 2.65046 30.8964 0.0632652 0.14496 5.07531 -1.10821 -25.214 25.6348 0.0524902 0.120274 -2.02159 -3.41821 -3.60995 -1.30426 -8.04702 7.96912 -16.6707 1.93625 -7.25005 -13.7035 3.43734 -3.45766 83.7041 52.344 19.7324 -30.8964 0.0632652 0.14496 -9.29548 -4.37949 50.9716 -25.6348 0.0524901 0.120274 9.66273 -48.3812 7.72663 9.77065 -4.44866 2.1502 -6.75612 -31.3192 -18.4958 -0.901622 -41.0132 -0.693059 -10.9014 35.8323 2.88305 -2.46068 -42.7371 -6.39839 5.10282 -14.2024 16.2064 0.82413 -10.4558 13.2182 8.44835e-16 -7.57867e-16 -2.48481e-17 -9.77065 -4.44866 2.1502 -3.22945 7.45599 22.3323 0.901622 -41.0132 -0.693059 3.97811 14.6394 -0.254117 2.46068 -42.7371 -6.39839 13.0845 21.0663 -18.1219 -0.82413 -10.4558 13.2182 6.16232e-15 -8.57259e-16 -1.30328e-14 
-4.61048 93.0796 63.0265 5.92332 15.2873 0.765559 0 5.37224 -1.21793 -4.18672 0.325267 2.48255 0 5.94127 1.13336 -4.10654 0.25787 1.97094 -1.08535e-17 6.33601 0.121658 -3.23449 0.201839 1.9519 -1.16841e-17 6.88189 -0.46916 -2.4322 0.116721 1.96775 -2.08699e-17 8.0451 -1.59297 -1.01364 -0.290625 2.18133 -2.67949e-17 10.0463 -0.967353 0.541806 -0.401196 1.9692 -3.07187e-17 11.1612 1.66806 -0.00511801 0.131151 -0.00168659 -1.36661e-17 5.06312 0.756688 0.139438 8.52266 -10.2176 -1.91632e-17 5.09976 0.446172 3.49058 -1.3224 -4.5807 -2.12574e-17 5.10962 0.809285 1.98397 -2.38564 -2.71481 1.30426 -8.04703 7.96922 7.52692 2.30225 1.31296 13.7035 3.43734 -3.45766 -90.7358 14.7078 0.367441 30.8964 0.0632652 0.14496 5.57178 -1.35295 -27.8714 25.6348 0.0524902 0.120274 -2.78684 -7.69672 -4.38636 -1.30426 -8.04702 7.96912 -14.9747 2.45493 -6.06424 -13.7035 3.43734 -3.45766 86.0171 51.4743 16.9026 -30.8964 0.0632652 0.14496 -8.41251 -3.41615 44.7352 -25.6348 0.0524901 0.120274 10.1857 -48.7843 8.08678 9.77065 -4.44866 2.1502 -7.40712 -30.8296 -19.064 -0.901622 -41.0132 -0.693059 -10.8952 35.8165 2.87965 -2.46068 -42.7371 -6.39839 5.17719 -16.8284 16.644 0.82413 -10.4558 13.2182 -1.14301e-15 -8.44835e-16 6.21202e-17 -9.77065 -4.44866 2.1502 -2.87054 3.52181 20.6772 0.901622 -41.0132 -0.693059 6.50437 23.2123 -0.925573 2.46068 -42.7371 -6.39839 11.6625 17.0499 -17.0101 -0.82413 -10.4558 13.2182 -3.37934e-15 -4.47266e-16 -1.26228e-14 
